<svg xmlns="http://www.w3.org/2000/svg" id="Layer_1" data-name="Layer 1" viewBox="0 0 2376 404"><defs fill="#0d0c0c"><style>.cls-1{fill:#001d4f;}.cls-2{fill:#001d4f;}.cls-3{fill:#fec123;}</style></defs><polygon class="cls-1" points="731.71 100.82 756.6 41.14 835.66 41.14 835.66 362.79 755.93 362.79 755.93 101.89 731.71 100.82" fill="#0d0c0c"/><path class="cls-2" d="M323,41.14H87.7L63.49,100.9l21.94.17V361.78h80.12V291.5H320.34l46.06-46.63V84.94ZM288,234H165.55V100.82H288Z" fill="#0d0c0c"/><path class="cls-2" d="M695.88,84.93,652.44,41.14H417.19L393,100.89l21.94.18v260.7H495V291.5h73.89l37,70.28H690.8l-41-70.28,46.06-46.63ZM495,100.82H610.55l11.08,12.69V219.93L609.8,234H495Z" fill="#0d0c0c"/><path class="cls-2" d="M1960.92,84.93l-43.44-43.79H1682.23L1658,100.89l21.94.18v260.7h80.13V291.5H1834l37,70.28h84.88l-41-70.28,46.06-46.63Zm-200.84,15.89h115.51l11.08,12.69V219.93L1874.84,234H1760.08Z" fill="#0d0c0c"/><line class="cls-2" x1="610.55" y1="100.82" x2="607.75" y2="97.62" fill="#0d0c0c"/><polygon class="cls-2" points="1205.46 41.14 909.19 41.14 885.26 102.25 907.86 102.26 907.86 362.86 986.23 362.86 986.23 101.25 1040.46 101.25 1040.46 362.86 1119.39 362.86 1119.39 101.25 1170.34 101.25 1170.34 362.86 1249.89 362.86 1249.89 85.46 1205.46 41.14" fill="#0d0c0c"/><path class="cls-2" d="M1553.92,362.85h86.18L1513.65,41.14H1408.54L1282.09,362.85h86.18L1393,291.22h136.13ZM1413,233.37,1461.1,94.28l48.07,139.09Z" fill="#0d0c0c"/><polygon class="cls-2" points="2312.51 41.14 2188.98 253.49 2188.98 361.77 2107.6 361.77 2107.6 253.49 1984.07 41.14 2076 41.14 2148.29 186.07 2220.58 41.14 2312.51 41.14" fill="#0d0c0c"/><path class="cls-3" d="M384.2,102.36v12.26a3.27,3.27,0,0,1-3.1,3.27L288,123.1v7.64s-10-1.63-12.69-2.22-4.36-.44-4.36-3.47V114.43c0-3.25,6.65-3.84,9.52-4l86-4.44V98.15c2.28,0,7.11-.06,9.05,0C378,98.25,384.2,99.59,384.2,102.36Z" fill="#0d0c0c"/><path class="cls-3" d="M384.2,127.61v12.26a3.27,3.27,0,0,1-3.1,3.27L288,148.35V156s-10-1.63-12.69-2.22-4.36-.44-4.36-3.47V139.68c0-3.25,6.65-3.84,9.52-4l86-4.44V123.4c2.28,0,7.11-.06,9.05,0C378,123.5,384.2,124.84,384.2,127.61Z" fill="#0d0c0c"/><path class="cls-3" d="M384.2,152.85v12.26a3.27,3.27,0,0,1-3.1,3.27L288,173.59v7.64s-10-1.63-12.69-2.22-4.36-.44-4.36-3.47V164.92c0-3.25,6.65-3.84,9.52-4l86-4.44v-7.85c2.28,0,7.11-.06,9.05,0C378,148.74,384.2,150.08,384.2,152.85Z" fill="#0d0c0c"/><path class="cls-3" d="M384.2,178.09v12.26a3.27,3.27,0,0,1-3.1,3.27L288,198.83v7.64s-10-1.63-12.69-2.22-4.36-.44-4.36-3.47V190.16c0-3.25,6.65-3.84,9.52-4l86-4.44v-7.85c2.28,0,7.11-.06,9.05,0C378,174,384.2,175.32,384.2,178.09Z" fill="#0d0c0c"/><path class="cls-3" d="M384.2,203.33v12.26a3.27,3.27,0,0,1-3.1,3.27L288,224.07v7.64s-10-1.63-12.69-2.22-4.36-.44-4.36-3.47V215.4c0-3.25,6.65-3.84,9.52-4l86-4.44v-7.85c2.28,0,7.11-.06,9.05,0C378,199.22,384.2,200.56,384.2,203.33Z" fill="#0d0c0c"/><path class="cls-3" d="M165.55,196.28h7c3.58,0,9.07,2.68,9.23,3.46s0,7.86,0,10.75-2.94,4.26-7.39,4.69-89,7-89,7v6.91s-5.33-.85-8.89-1.52-7.41-1.3-7.41-4.72-.11-6.53,0-10.14,8.18-4,11.82-4.22,84.6-6.15,84.6-6.15Z" fill="#0d0c0c"/><path class="cls-3" d="M165.55,172.57h7c3.58,0,9.07,2.68,9.23,3.47s0,7.85,0,10.74-2.94,4.26-7.39,4.69-89,7-89,7v6.91s-5.33-.84-8.89-1.51-7.41-1.31-7.41-4.73-.11-6.52,0-10.14,8.18-4,11.82-4.22,84.6-6.15,84.6-6.15Z" fill="#0d0c0c"/><path class="cls-3" d="M165.55,148.87h7c3.58,0,9.07,2.68,9.23,3.46s0,7.85,0,10.74-2.94,4.27-7.39,4.69-89,7-89,7v6.92s-5.33-.85-8.89-1.52-7.41-1.31-7.41-4.73-.11-6.52,0-10.14,8.18-4,11.82-4.22,84.6-6.15,84.6-6.15Z" fill="#0d0c0c"/><path class="cls-3" d="M165.55,125.16h7c3.58,0,9.07,2.68,9.23,3.46s0,7.86,0,10.74-2.94,4.27-7.39,4.69-89,7-89,7v6.92s-5.33-.85-8.89-1.52-7.41-1.3-7.41-4.73-.11-6.52,0-10.14,8.18-4,11.82-4.21,84.6-6.15,84.6-6.15Z" fill="#0d0c0c"/><path class="cls-3" d="M165.55,101.45h7c3.58,0,9.07,2.68,9.23,3.46s0,7.86,0,10.75-2.94,4.26-7.39,4.69-89,7-89,7v6.91s-5.33-.85-8.89-1.52-7.41-1.3-7.41-4.72-.11-6.53,0-10.14,8.18-4,11.82-4.22,84.6-6.15,84.6-6.15Z" fill="#0d0c0c"/></svg>